<svg width="232" height="313" viewBox="0 0 232 313" fill="none" xmlns="http://www.w3.org/2000/svg">
<rect width="232" height="313" rx="15" fill="#020202"/>
<path d="M86.7166 165.275C84.8833 165.275 83.3166 164.883 82.0166 164.1C80.7333 163.3 79.7583 162.183 79.0916 160.75C78.4249 159.317 78.0916 157.633 78.0916 155.7C78.0916 153.833 78.4833 152.183 79.2666 150.75C80.0499 149.317 81.1249 148.208 82.4916 147.425C83.8583 146.625 85.3916 146.225 87.0916 146.225C88.3749 146.225 89.9166 146.425 91.7166 146.825L92.5416 146.975L92.2916 151.475H90.6166L89.9916 148.3C89.7583 148.1 89.3499 147.933 88.7666 147.8C88.1999 147.65 87.4999 147.575 86.6666 147.575C85.5999 147.575 84.6499 147.883 83.8166 148.5C82.9833 149.1 82.3249 149.992 81.8416 151.175C81.3749 152.358 81.1416 153.775 81.1416 155.425C81.1416 156.992 81.3499 158.417 81.7666 159.7C82.1833 160.983 82.8166 162.008 83.6666 162.775C84.5166 163.525 85.5666 163.9 86.8166 163.9C87.6999 163.9 88.3749 163.825 88.8416 163.675C89.3249 163.525 89.7333 163.308 90.0666 163.025L91.1166 160.575L92.6916 160.775L92.0916 164.325C91.7416 164.342 91.2249 164.458 90.5416 164.675C89.9416 164.858 89.3583 165 88.7916 165.1C88.2416 165.217 87.5499 165.275 86.7166 165.275ZM103.275 157.425C103.891 157.708 104.458 158.167 104.975 158.8C105.491 159.433 106.083 160.267 106.75 161.3C107.183 161.983 107.541 162.508 107.825 162.875C108.108 163.225 108.366 163.433 108.6 163.5L109.575 163.75V165H106.95C106.5 165 106.058 164.725 105.625 164.175C105.191 163.625 104.675 162.817 104.075 161.75C103.441 160.633 102.9 159.792 102.45 159.225C102 158.658 101.525 158.375 101.025 158.375H99.1996V163.55L101.375 163.775V165H94.7496V163.775L96.6496 163.55V152.7L94.7746 152.35V151.125H101.175V152.35L99.1996 152.7V157.175H101.725L105.05 152.7L103.15 152.35V151.125H108.975V152.35L107.125 152.7L103.275 157.425ZM110.74 158.025C110.74 156.525 111.049 155.225 111.665 154.125C112.282 153.025 113.09 152.192 114.09 151.625C115.107 151.042 116.19 150.75 117.34 150.75C119.44 150.75 121.015 151.417 122.065 152.75C123.132 154.083 123.665 155.833 123.665 158C123.665 159.517 123.357 160.825 122.74 161.925C122.124 163.025 121.307 163.858 120.29 164.425C119.29 164.992 118.215 165.275 117.065 165.275C114.965 165.275 113.382 164.608 112.315 163.275C111.265 161.942 110.74 160.192 110.74 158.025ZM117.215 163.85C118.365 163.85 119.249 163.375 119.865 162.425C120.482 161.475 120.79 160.067 120.79 158.2C120.79 156.35 120.507 154.883 119.94 153.8C119.374 152.717 118.465 152.175 117.215 152.175C116.065 152.175 115.174 152.65 114.54 153.6C113.924 154.55 113.615 155.958 113.615 157.825C113.615 159.675 113.907 161.142 114.49 162.225C115.074 163.308 115.982 163.85 117.215 163.85ZM139.475 157.575C139.475 158.992 139.184 160.292 138.6 161.475C138.017 162.642 137.184 163.567 136.1 164.25C135.017 164.933 133.75 165.275 132.3 165.275C131.9 165.275 131.467 165.242 131 165.175C130.534 165.108 130.159 165.025 129.875 164.925L129.95 167.025V169.55L132.55 169.825V171.05H125.575V169.825L127.375 169.55V153.05L125.55 152.6V151.25L129.1 150.8H129.15L129.675 151.25V152.725C130.175 152.175 130.792 151.708 131.525 151.325C132.275 150.942 133.109 150.75 134.025 150.75C135.009 150.75 135.909 150.992 136.725 151.475C137.559 151.958 138.225 152.708 138.725 153.725C139.225 154.742 139.475 156.025 139.475 157.575ZM133 152.5C132.367 152.5 131.775 152.633 131.225 152.9C130.675 153.167 130.25 153.458 129.95 153.775V163.2C130.067 163.4 130.359 163.583 130.825 163.75C131.309 163.9 131.834 163.975 132.4 163.975C133.684 163.975 134.717 163.467 135.5 162.45C136.3 161.433 136.7 159.9 136.7 157.85C136.7 156.05 136.35 154.708 135.65 153.825C134.967 152.942 134.084 152.5 133 152.5ZM141.648 158.025C141.648 156.525 141.957 155.225 142.573 154.125C143.19 153.025 143.998 152.192 144.998 151.625C146.015 151.042 147.098 150.75 148.248 150.75C150.348 150.75 151.923 151.417 152.973 152.75C154.04 154.083 154.573 155.833 154.573 158C154.573 159.517 154.265 160.825 153.648 161.925C153.032 163.025 152.215 163.858 151.198 164.425C150.198 164.992 149.123 165.275 147.973 165.275C145.873 165.275 144.29 164.608 143.223 163.275C142.173 161.942 141.648 160.192 141.648 158.025ZM148.123 163.85C149.273 163.85 150.157 163.375 150.773 162.425C151.39 161.475 151.698 160.067 151.698 158.2C151.698 156.35 151.415 154.883 150.848 153.8C150.282 152.717 149.373 152.175 148.123 152.175C146.973 152.175 146.082 152.65 145.448 153.6C144.832 154.55 144.523 155.958 144.523 157.825C144.523 159.675 144.815 161.142 145.398 162.225C145.982 163.308 146.89 163.85 148.123 163.85Z" fill="white"/>
</svg>
