<svg width="100" height="100" viewBox="0 0 100 100" fill="none" xmlns="http://www.w3.org/2000/svg">
<circle cx="50" cy="50" r="50" fill="#53BA82"/>
<path d="M30.7189 67.4L35.4589 66.8V30.92L30.9589 30.08V26.42H39.6589C40.4189 26.42 41.2589 26.4 42.1789 26.36C43.0989 26.32 43.7989 26.28 44.2789 26.24C46.3589 26.08 48.0789 26 49.4389 26C53.5589 26 56.8589 26.42 59.3389 27.26C61.8189 28.1 63.6189 29.38 64.7389 31.1C65.8589 32.82 66.4189 35.08 66.4189 37.88C66.4189 40.64 65.6789 43.2 64.1989 45.56C62.7189 47.92 60.5789 49.54 57.7789 50.42C59.3789 51.1 60.7989 52.34 62.0389 54.14C63.2789 55.94 64.5989 58.28 65.9989 61.16C66.9989 63.12 67.7589 64.54 68.2789 65.42C68.8389 66.26 69.3789 66.74 69.8989 66.86L71.8789 67.46V71H61.6789C61.0389 71 60.3589 70.36 59.6389 69.08C58.9589 67.76 58.0589 65.7 56.9389 62.9C55.6189 59.62 54.4789 57.06 53.5189 55.22C52.5589 53.38 51.5389 52.24 50.4589 51.8H44.2789V66.8L49.7989 67.4V71H30.7189V67.4ZM49.7989 48.14C52.0789 48.14 53.8589 47.32 55.1389 45.68C56.4189 44.04 57.0589 41.58 57.0589 38.3C57.0589 35.38 56.4189 33.22 55.1389 31.82C53.8989 30.42 51.7389 29.72 48.6589 29.72C47.5389 29.72 46.5789 29.78 45.7789 29.9C45.0189 29.98 44.5189 30.02 44.2789 30.02V48.02C44.7589 48.1 45.9189 48.14 47.7589 48.14H49.7989Z" fill="black"/>
</svg>
